<svg width="78" height="78" viewBox="0 0 78 78" fill="none" xmlns="http://www.w3.org/2000/svg">
<circle cx="39" cy="39" r="29.25" fill="#0068FF"/>
<circle opacity="0.2" cx="39" cy="39" r="39" fill="#0068FF"/>
<path d="M37.9067 48.3347C37.9428 48.3709 37.9807 48.4051 38.0203 48.4375C38.0377 48.4518 38.0561 48.4641 38.0739 48.4775C38.0963 48.4944 38.1184 48.5118 38.1418 48.5274C38.1636 48.542 38.1863 48.5547 38.2086 48.5681C38.2295 48.5806 38.2499 48.5936 38.2713 48.6051C38.2943 48.6174 38.318 48.6278 38.3415 48.6389C38.3636 48.6494 38.3854 48.6605 38.4082 48.6699C38.4312 48.6794 38.4546 48.6871 38.4779 48.6953C38.5022 48.7041 38.5261 48.7134 38.5509 48.7209C38.5742 48.7279 38.5979 48.7331 38.6214 48.739C38.6467 48.7454 38.6718 48.7525 38.6975 48.7577C38.7246 48.763 38.752 48.7662 38.7793 48.7701C38.8019 48.7733 38.8241 48.7776 38.8471 48.7799C38.8978 48.7849 38.9487 48.7876 38.9996 48.7876C39.0505 48.7876 39.1014 48.785 39.152 48.7799C39.1753 48.7776 39.1977 48.7733 39.2207 48.77C39.2477 48.7662 39.2747 48.763 39.3015 48.7577C39.3278 48.7525 39.3534 48.7452 39.3792 48.7387C39.4021 48.7328 39.4253 48.7279 39.4481 48.721C39.4734 48.7133 39.4979 48.7038 39.5227 48.6949C39.5455 48.6867 39.5684 48.6793 39.5909 48.67C39.6141 48.6604 39.6362 48.6492 39.6588 48.6385C39.682 48.6275 39.7054 48.6172 39.728 48.6051C39.7497 48.5935 39.7701 48.5804 39.791 48.5679C39.8133 48.5545 39.836 48.5419 39.8577 48.5273C39.8806 48.512 39.9022 48.4949 39.9241 48.4785C39.9425 48.4647 39.9614 48.452 39.9793 48.4373C40.0169 48.4064 40.0529 48.3738 40.0874 48.3396C40.0891 48.3379 40.0909 48.3367 40.0925 48.335L47.3048 41.1231C47.9083 40.5196 47.9083 39.5411 47.3048 38.9375C46.7013 38.3341 45.7227 38.334 45.1192 38.9374L40.5451 43.5113V24.5757C40.5451 23.7222 39.8531 23.0303 38.9996 23.0303C38.1461 23.0303 37.4542 23.7222 37.4542 24.5757V43.5112L32.8804 38.9375C32.277 38.334 31.2984 38.334 30.6949 38.9375C30.0913 39.5411 30.0913 40.5196 30.6949 41.1231L37.9067 48.3347Z" fill="white"/>
<path d="M54.4545 38.4849C53.601 38.4849 52.9091 39.1768 52.9091 40.0303V51.8788H25.0909V40.0303C25.0909 39.1768 24.399 38.4849 23.5455 38.4849C22.692 38.4849 22 39.1768 22 40.0303V53.4243C22 54.2778 22.692 54.9697 23.5455 54.9697H54.4545C55.308 54.9697 56 54.2778 56 53.4243V40.0303C56 39.1768 55.308 38.4849 54.4545 38.4849Z" fill="white"/>
</svg>
