<svg width="44" height="44" viewBox="0 0 44 44" fill="none" xmlns="http://www.w3.org/2000/svg">
<path fill-rule="evenodd" clip-rule="evenodd" d="M11.9175 27C10.3054 27 9 25.9985 9 24.7644V7.85542C9 6.8307 9.8307 6 10.8554 6L33.1446 6C34.1693 6 35 6.8307 35 7.85542V24.7644C35 25.9985 33.693 27 32.0825 27H11.9175Z" fill="#A6C8FF"/>
<path fill-rule="evenodd" clip-rule="evenodd" d="M33 30.5011C33 29.1199 34.1191 28 35.4995 28C36.8809 28 38 29.1199 38 30.5011C38 31.8801 36.8809 33 35.4995 33C34.1191 33 33 31.8801 33 30.5011ZM5.98042 22C4.9557 22 4.125 22.8307 4.125 23.8554V38.0196C4.125 39.0443 4.9557 39.875 5.98042 39.875H38.0196C39.0443 39.875 39.875 39.0443 39.875 38.0196V23.8554C39.875 22.8307 39.0443 22 38.0196 22H5.98042Z" fill="#0068FF"/>
<circle cx="22" cy="17.8735" r="8" fill="white"/>
<path fill-rule="evenodd" clip-rule="evenodd" d="M22 12.8735C21.4477 12.8735 21 13.3213 21 13.8735V16.8735L18 16.8735C17.4477 16.8735 17 17.3212 17 17.8735C17 18.4258 17.4477 18.8735 18 18.8735H21V21.8735C21 22.4258 21.4477 22.8735 22 22.8735C22.5523 22.8735 23 22.4258 23 21.8735V18.8735H26C26.5523 18.8735 27 18.4258 27 17.8735C27 17.3213 26.5523 16.8735 26 16.8735L23 16.8735V13.8735C23 13.3213 22.5523 12.8735 22 12.8735Z" fill="#34B764"/>
</svg>
