<svg width="17" height="16" viewBox="0 0 17 16" fill="none" xmlns="http://www.w3.org/2000/svg">
<path fill-rule="evenodd" clip-rule="evenodd" d="M6.44059 2.37327C6.44059 1.74459 6.97472 1.2666 7.59393 1.2666H9.40726C10.0149 1.2666 10.5606 1.73332 10.5606 2.37327V2.93327H13.5006C13.7215 2.93327 13.9006 3.11235 13.9006 3.33327C13.9006 3.55418 13.7215 3.73327 13.5006 3.73327H3.50059C3.27967 3.73327 3.10059 3.55418 3.10059 3.33327C3.10059 3.11235 3.27967 2.93327 3.50059 2.93327H6.44059V2.37327ZM9.76059 2.37327V2.93327H7.24059V2.37327C7.24059 2.22862 7.37313 2.0666 7.59393 2.0666H9.40726C9.62629 2.0666 9.76059 2.22655 9.76059 2.37327ZM4.85962 5.30522C4.84412 5.08485 4.6529 4.91877 4.43253 4.93427C4.21217 4.94977 4.04609 5.14099 4.06159 5.36135L4.58733 12.8348C4.5953 13.8911 5.45359 14.7333 6.50727 14.7333H10.4473C11.5021 14.7333 12.3592 13.8834 12.3672 12.8348L12.893 5.36135C12.9085 5.14099 12.7424 4.94977 12.522 4.93427C12.3016 4.91877 12.1104 5.08485 12.0949 5.30522L11.5683 12.7919C11.5676 12.8012 11.5673 12.8106 11.5673 12.82C11.5673 13.4312 11.0675 13.9333 10.4473 13.9333H6.50727C5.88589 13.9333 5.38727 13.4367 5.38727 12.82C5.38727 12.8106 5.38694 12.8012 5.38628 12.7919L4.85962 5.30522Z" fill="#141415"/>
</svg>
