<svg width="16" height="17" viewBox="0 0 16 17" fill="none" xmlns="http://www.w3.org/2000/svg">
<path fill-rule="evenodd" clip-rule="evenodd" d="M7.39483 1.5C6.83144 1.5 6.35912 1.92568 6.30075 2.48603L5.71596 8.1H3.53338C2.88812 8.1 2.5865 8.89888 3.07074 9.32533L6.87768 12.6779C7.51918 13.2428 8.48039 13.2436 9.12277 12.6796L12.9428 9.32605C13.4281 8.9 13.1268 8.1 12.481 8.1H10.0547L9.46992 2.48603C9.41155 1.92567 8.93923 1.5 8.37584 1.5H7.39483ZM7.29537 2.58964C7.30067 2.5387 7.34361 2.5 7.39483 2.5H8.37584C8.42705 2.5 8.46999 2.5387 8.4753 2.58964L9.06943 8.29325C9.11718 8.75172 9.50363 9.1 9.96458 9.1H11.6845L8.46303 11.9281C8.19852 12.1604 7.80273 12.16 7.53858 11.9274L4.32796 9.1H5.80609C6.26704 9.1 6.65348 8.75172 6.70124 8.29325L7.29537 2.58964ZM3 14.5C2.72386 14.5 2.5 14.7239 2.5 15C2.5 15.2761 2.72386 15.5 3 15.5H13C13.2761 15.5 13.5 15.2761 13.5 15C13.5 14.7239 13.2761 14.5 13 14.5H3Z" fill="#767A7F"/>
</svg>
