<svg width="44" height="44" viewBox="0 0 44 44" fill="none" xmlns="http://www.w3.org/2000/svg">
    <path fill-rule="evenodd" clip-rule="evenodd" d="M36.2386 15.582C36.0001 15.5536 35.7468 15.5416 35.5084 15.5416C32.8897 15.5416 30.5628 16.7767 29.0491 18.6952L10.12 23.821C9.25648 24.0483 8.37815 23.5384 8.15302 22.6666L6.05275 14.803C5.82761 13.9312 6.34453 13.0326 7.1962 12.8053L14.4405 10.845L32.1328 6.05412C32.9964 5.82683 33.8732 6.33523 34.1117 7.20847L35.1366 11.0468L36.2001 15.0721C36.2386 15.2456 36.2667 15.4205 36.2386 15.582" fill="#A6C8FF" />
    <path fill-rule="evenodd" clip-rule="evenodd" d="M37.625 32.7142V34.3556C37.625 36.1575 36.2041 37.625 34.4595 37.625H9.1641C7.41804 37.625 6 36.1575 6 34.3556V14.7694C6 12.966 7.41804 11.5 9.1641 11.5H34.4595C34.8368 11.5 35.2026 11.5675 35.5408 11.7024C36.7512 12.1581 37.625 13.3558 37.625 14.7694V16.4093C37.625 23.125 37.6001 29.625 37.625 32.7142Z" fill="#0068FF" />
    <circle cx="21.5996" cy="16" r="8" fill="white" />
    <path fill-rule="evenodd" clip-rule="evenodd" d="M20.5806 11.5C20.5806 10.9477 21.0283 10.5 21.5806 10.5C22.1329 10.5 22.5806 10.9477 22.5806 11.5V18.0858L23.7411 16.9252C24.1317 16.5347 24.7648 16.5347 25.1553 16.9252C25.5459 17.3158 25.5459 17.9489 25.1553 18.3395L22.3269 21.1679C22.3203 21.1746 22.3135 21.1811 22.3067 21.1876C22.1244 21.38 21.8665 21.5 21.5806 21.5C21.2197 21.5 20.9034 21.3088 20.7276 21.0222L18.0448 18.3395C17.6543 17.9489 17.6543 17.3158 18.0448 16.9252C18.4354 16.5347 19.0685 16.5347 19.4591 16.9252L20.5806 18.0468V11.5Z" fill="#34B764" />
</svg>