<svg width="17" height="16" viewBox="0 0 17 16" fill="none" xmlns="http://www.w3.org/2000/svg">
<g clip-path="url(#clip0_901_11732)">
<path fill-rule="evenodd" clip-rule="evenodd" d="M13.11 3.34996C11.9611 2.20105 10.1056 2.20105 8.95668 3.34996L7.92334 4.3833C7.7411 4.56554 7.7411 4.86102 7.92334 5.04326C8.10559 5.22551 8.40106 5.22551 8.58331 5.04326L9.61664 4.00993C10.4011 3.22551 11.6656 3.22551 12.45 4.00993C13.2344 4.79435 13.2344 6.05888 12.45 6.8433L10.85 8.4433C10.0656 9.22772 8.80106 9.22772 8.01664 8.4433C7.8344 8.26105 7.53892 8.26105 7.35667 8.4433C7.17443 8.62554 7.17443 8.92102 7.35667 9.10326C8.50559 10.2522 10.3611 10.2522 11.51 9.10326L13.11 7.50326C14.2589 6.35435 14.2589 4.49888 13.11 3.34996ZM9.6433 6.80993C8.49439 5.66101 6.63892 5.66101 5.49 6.80993L3.89 8.40993C2.74109 9.55884 2.74109 11.4143 3.89 12.5632C5.03892 13.7121 6.89439 13.7121 8.0433 12.5632L9.01664 11.5899C9.19888 11.4076 9.19888 11.1122 9.01664 10.9299C8.83439 10.7477 8.53892 10.7477 8.35667 10.9299L7.38334 11.9033C6.59891 12.6877 5.33439 12.6877 4.54997 11.9033C3.76555 11.1188 3.76555 9.85431 4.54997 9.06989L6.14997 7.46989C6.93439 6.68547 8.19892 6.68547 8.98334 7.46989C9.16558 7.65214 9.46106 7.65214 9.6433 7.46989C9.82555 7.28765 9.82555 6.99217 9.6433 6.80993Z" fill="#141415"/>
</g>
<defs>
<clipPath id="clip0_901_11732">
<rect width="16" height="16" fill="white" transform="translate(0.5)"/>
</clipPath>
</defs>
</svg>
