<svg width="17" height="16" viewBox="0 0 17 16" fill="none" xmlns="http://www.w3.org/2000/svg">
<path fill-rule="evenodd" clip-rule="evenodd" d="M10.9027 1.80261L11.4657 2.36559L9.66572 4.16559C9.4448 4.3865 9.4448 4.67997 9.66572 4.90088L11.4657 6.70088C11.5871 6.82231 11.7189 6.86657 11.8334 6.86657C11.9479 6.86657 12.0796 6.82231 12.201 6.70088L14.001 4.90088C14.2219 4.67997 14.2219 4.3865 14.001 4.16559L12.201 2.36559L12.764 1.80261L12.201 2.36559C12.0796 2.24416 11.9479 2.1999 11.8334 2.1999C11.7189 2.1999 11.5871 2.24416 11.4657 2.36559L10.9027 1.80261ZM6.5 2.7999H3.83333C3.54183 2.7999 3.3 3.04173 3.3 3.33323V5.9999C3.3 6.2914 3.54183 6.53323 3.83333 6.53323H6.5C6.79151 6.53323 7.03333 6.2914 7.03333 5.9999V3.33323C7.03333 3.04173 6.79151 2.7999 6.5 2.7999ZM6.5 9.46657H3.83333C3.54183 9.46657 3.3 9.70839 3.3 9.9999V12.6666C3.3 12.9581 3.54183 13.1999 3.83333 13.1999H6.5C6.79151 13.1999 7.03333 12.9581 7.03333 12.6666V9.9999C7.03333 9.70839 6.79151 9.46657 6.5 9.46657ZM13.1667 9.46657H10.5C10.2085 9.46657 9.96667 9.70839 9.96667 9.9999V12.6666C9.96667 12.9581 10.2085 13.1999 10.5 13.1999H13.1667C13.4582 13.1999 13.7 12.9581 13.7 12.6666V9.9999C13.7 9.70839 13.4582 9.46657 13.1667 9.46657ZM11.8334 1.3999C11.5 1.3999 11.1667 1.53324 10.9 1.7999L9.10003 3.5999C8.5667 4.13324 8.5667 4.93324 9.10003 5.46657L10.9 7.26657C11.1667 7.53324 11.5 7.66657 11.8334 7.66657C12.1667 7.66657 12.5 7.53324 12.7667 7.26657L14.5667 5.46657C15.1 4.93324 15.1 4.13324 14.5667 3.5999L12.7667 1.7999C12.5 1.53324 12.1667 1.3999 11.8334 1.3999ZM6.5 1.9999H3.83333C3.1 1.9999 2.5 2.5999 2.5 3.33323V5.9999C2.5 6.73323 3.1 7.33323 3.83333 7.33323H6.5C7.23333 7.33323 7.83333 6.73323 7.83333 5.9999V3.33323C7.83333 2.5999 7.23333 1.9999 6.5 1.9999ZM6.5 8.66656H3.83333C3.1 8.66656 2.5 9.26656 2.5 9.9999V12.6666C2.5 13.3999 3.1 13.9999 3.83333 13.9999H6.5C7.23333 13.9999 7.83333 13.3999 7.83333 12.6666V9.9999C7.83333 9.26656 7.23333 8.66656 6.5 8.66656ZM13.1667 8.66656H10.5C9.76667 8.66656 9.16667 9.26656 9.16667 9.9999V12.6666C9.16667 13.3999 9.76667 13.9999 10.5 13.9999H13.1667C13.9 13.9999 14.5 13.3999 14.5 12.6666V9.9999C14.5 9.26656 13.9 8.66656 13.1667 8.66656Z" fill="#141415"/>
</svg>
