<svg width="17" height="16" viewBox="0 0 17 16" fill="none" xmlns="http://www.w3.org/2000/svg">
<g clip-path="url(#clip0_901_11726)">
<path fill-rule="evenodd" clip-rule="evenodd" d="M14.6288 2.38109C14.6308 2.25062 14.582 2.11953 14.4824 2.01998C14.428 1.96558 14.3642 1.92634 14.2962 1.90225C14.2447 1.88399 14.1907 1.87443 14.1367 1.8736C14.1341 1.87356 14.1314 1.87353 14.1288 1.87354H10.8576C10.5815 1.87354 10.3576 2.09739 10.3576 2.37354C10.3576 2.64968 10.5815 2.87354 10.8576 2.87354H12.9218L8.14742 7.64789C7.95216 7.84315 7.95216 8.15973 8.14742 8.35499C8.34269 8.55026 8.65927 8.55026 8.85453 8.35499L13.6288 3.5807V5.65179C13.6288 5.92793 13.8527 6.15179 14.1288 6.15179C14.405 6.15179 14.6288 5.92793 14.6288 5.65179V2.38109ZM4.84281 2.87354C4.02855 2.87354 3.37305 3.52904 3.37305 4.3433V11.6596C3.37305 12.4738 4.02855 13.1293 4.84281 13.1293H12.1591C12.9734 13.1293 13.6289 12.4738 13.6289 11.6596V8.00144C13.6289 7.7253 13.8527 7.50144 14.1289 7.50144C14.405 7.50144 14.6289 7.7253 14.6289 8.00144V11.6596C14.6289 13.0261 13.5256 14.1293 12.1591 14.1293H4.84281C3.47626 14.1293 2.37305 13.0261 2.37305 11.6596V4.3433C2.37305 2.97675 3.47626 1.87354 4.84281 1.87354H8.50095C8.77709 1.87354 9.00095 2.09739 9.00095 2.37354C9.00095 2.64968 8.77709 2.87354 8.50095 2.87354H4.84281Z" fill="#141415"/>
</g>
<defs>
<clipPath id="clip0_901_11726">
<rect width="16" height="16" fill="white" transform="translate(0.5)"/>
</clipPath>
</defs>
</svg>
