<svg width="17" height="17" viewBox="0 0 17 17" fill="none" xmlns="http://www.w3.org/2000/svg">
<path fill-rule="evenodd" clip-rule="evenodd" d="M9.0996 4.2001C9.0996 3.86873 8.83097 3.6001 8.4996 3.6001C8.16823 3.6001 7.8996 3.86873 7.8996 4.2001V7.90009H4.19961C3.86824 7.90009 3.59961 8.16871 3.59961 8.50009C3.59961 8.83146 3.86824 9.10009 4.19961 9.10009H7.8996V12.8001C7.8996 13.1315 8.16823 13.4001 8.4996 13.4001C8.83097 13.4001 9.0996 13.1315 9.0996 12.8001V9.10009H12.7996C13.131 9.10009 13.3996 8.83146 13.3996 8.50009C13.3996 8.16871 13.131 7.90009 12.7996 7.90009H9.0996V4.2001Z" fill="#006AF5"/>
</svg>
