<svg width="92" height="92" viewBox="0 0 92 92" fill="none" xmlns="http://www.w3.org/2000/svg">
<circle cx="46" cy="46" r="34.5" fill="#0068FF"/>
<circle opacity="0.2" cx="46" cy="46" r="46" fill="#0068FF"/>
<path fill-rule="evenodd" clip-rule="evenodd" d="M64.1939 37.7993C63.8892 37.763 63.5655 37.7478 63.2608 37.7478C59.9147 37.7478 56.9415 39.3259 55.0073 41.7773L30.8201 48.3269C29.7167 48.6173 28.5944 47.9658 28.3067 46.8519L25.6231 36.8039C25.3354 35.69 25.9959 34.5417 27.0841 34.2513L36.3407 31.7465L58.9476 25.6248C60.051 25.3344 61.1714 25.984 61.4761 27.0998L62.7858 32.0044L64.1447 37.1478C64.1939 37.3695 64.2298 37.593 64.1939 37.7993Z" fill="#A6C8FF"/>
<path fill-rule="evenodd" clip-rule="evenodd" d="M65.9654 59.691V61.7884C65.9654 64.0907 64.1497 65.9659 61.9205 65.9659H29.5987C27.3676 65.9659 25.5557 64.0907 25.5557 61.7884V36.7615C25.5557 34.4573 27.3676 32.584 29.5987 32.584H61.9205C62.4027 32.584 62.8701 32.6702 63.3022 32.8426C64.8489 33.4249 65.9654 34.9553 65.9654 36.7615V38.857C65.9654 47.4381 65.9336 55.7437 65.9654 59.691Z" fill="white"/>
<circle cx="45.4888" cy="48.556" r="10.2222" fill="#0068FF"/>
<path fill-rule="evenodd" clip-rule="evenodd" d="M46.7916 54.306C46.7916 55.0117 46.2195 55.5837 45.5138 55.5837C44.8081 55.5837 44.236 55.0117 44.236 54.306L44.236 45.8908L42.7532 47.3736C42.2542 47.8726 41.4452 47.8726 40.9462 47.3736C40.4472 46.8745 40.4472 46.0655 40.9462 45.5665L44.5603 41.9524C44.5688 41.9439 44.5774 41.9356 44.586 41.9274C44.8189 41.6815 45.1485 41.5282 45.5138 41.5282C45.9745 41.5282 46.3782 41.7719 46.603 42.1375L50.032 45.5665C50.531 46.0655 50.531 46.8745 50.032 47.3736C49.533 47.8726 48.724 47.8726 48.2249 47.3736L46.7916 45.9402L46.7916 54.306Z" fill="white"/>
</svg>
